<svg width="16" height="18" viewBox="0 0 16 18" fill="none" xmlns="http://www.w3.org/2000/svg">
<path fill-rule="evenodd" clip-rule="evenodd" d="M1.88351 0.991503L3.95193 0L6.89092 5.91751L4.90904 6.92327C4.51776 7.86752 6.47927 11.64 7.30693 11.7023C7.37238 11.6588 9.24953 10.7063 9.24953 10.7063L12.2387 16.6553C12.2387 16.6553 10.2285 17.6708 10.163 17.7023C4.44576 20.3956 -3.72901 4.00876 1.88351 0.991503ZM3.28718 1.947L2.54316 2.32501C-1.30713 4.39651 5.58106 18.2138 9.56008 16.3395L10.2663 15.984L8.6146 12.6968L7.8684 13.0718C5.56797 14.232 1.8595 6.90752 4.19193 5.61826L4.92432 5.24551L3.28718 1.947ZM11.1049 8.33627L8.98334 7.68377L9.61535 5.49676C10.1579 5.66326 10.6401 6.04426 10.9303 6.59852C11.2212 7.15202 11.267 7.77602 11.1049 8.33627ZM10.2954 3.13951C11.4234 3.48601 12.4234 4.27651 13.0271 5.42776C13.6315 6.57977 13.7253 7.87502 13.3893 9.03752L12.0838 8.63627C12.3202 7.81802 12.2532 6.90677 11.8278 6.09602C11.4038 5.28526 10.6997 4.72951 9.90554 4.48651L10.2954 3.13951ZM15.153 4.24201C14.2322 2.48401 12.7063 1.27875 10.9863 0.750002L10.587 2.13076C11.9652 2.55376 13.1871 3.51976 13.926 4.92751C14.6635 6.33452 14.7784 7.91777 14.3682 9.33902L15.7064 9.75002C16.2192 7.97552 16.0759 5.99927 15.153 4.24201Z" fill="white"/>
</svg>
