<svg width="80" height="70" viewBox="0 0 80 70" fill="none" xmlns="http://www.w3.org/2000/svg">
<g clip-path="url(#clip0_1028_2)">
<path d="M29.4401 18.7189C29.8043 17.9137 30.4776 17.2642 31.3281 16.8974C32.2882 16.5142 33.3622 16.4583 34.362 16.7396C35.4149 17.0182 36.3991 17.4865 37.2591 18.1178C38.8109 19.2865 40.0839 20.7446 40.9964 22.3986C41.909 24.0527 42.4411 25.8662 42.5586 27.7232C42.6529 29.1394 42.6311 30.5602 42.4935 31.9733C42.4089 32.9691 42.2721 34.0195 42.0833 35.1063H53.1055C54.8358 35.1555 56.5336 35.5576 58.0794 36.2842C59.3088 36.8622 60.3598 37.7232 61.1328 38.7857C61.9295 39.9206 62.3194 41.2621 62.2461 42.6169C62.1738 43.8436 61.8349 45.0438 61.25 46.1445C61.6409 47.5303 61.7425 48.9732 61.5495 50.3947C61.3985 51.4857 60.8652 52.4995 60.0326 53.2787C60.0968 54.9096 59.8296 56.5371 59.2448 58.0753C58.7087 59.4184 57.872 60.6396 56.7904 61.6576C56.7095 62.5215 56.5461 63.3769 56.3021 64.2138C56.0209 65.1957 55.5582 66.1244 54.9349 66.9581C53.0599 69.4232 51.5625 69.3868 49.1927 69.2714C48.8607 69.2714 48.5417 69.2714 47.9622 69.2714H26.4779C24.8132 69.3345 23.1566 69.0243 21.6471 68.3668C20.1534 67.6124 18.8572 66.5591 17.8516 65.2824L17.5781 64.402V41.0565L18.6719 40.7833C21.4193 40.0729 23.5938 37.881 25.293 35.2156C26.9078 32.5399 28.1817 29.6973 29.0886 26.7456V20.674C29.0118 19.9987 29.1333 19.3166 29.4401 18.7007V18.7189ZM2.20053 38.6157H12.8451C13.1349 38.6165 13.4217 38.6705 13.6892 38.7747C13.9566 38.8789 14.1994 39.0311 14.4038 39.2228C14.6081 39.4145 14.77 39.6419 14.8801 39.8919C14.9902 40.1419 15.0464 40.4098 15.0456 40.6801V67.96C15.0439 68.5037 14.8115 69.0248 14.3992 69.4093C13.9869 69.7938 13.4281 70.0106 12.8451 70.0122H2.20053C1.9107 70.0114 1.62387 69.9573 1.35643 69.8532C1.08899 69.749 0.846165 69.5967 0.641828 69.405C0.43749 69.2133 0.275639 68.986 0.165516 68.736C0.0553925 68.4859 -0.000846591 68.2181 9.63152e-06 67.9478V40.6801C-0.000846591 40.4098 0.0553925 40.1419 0.165516 39.8919C0.275639 39.6419 0.43749 39.4145 0.641828 39.2228C0.846165 39.0311 1.08899 38.8789 1.35643 38.7747C1.62387 38.6705 1.9107 38.6165 2.20053 38.6157ZM32.5521 19.3504C32.404 19.4383 32.2787 19.5558 32.1852 19.6944C32.0918 19.833 32.0325 19.9892 32.0117 20.1518V26.9581L31.9466 27.3467C30.9656 30.5871 29.5711 33.7059 27.793 36.6363C25.957 39.4657 23.5807 41.949 20.4883 43.1087V63.9466C21.1615 64.7581 22.0085 65.4301 22.9753 65.9199C24.0833 66.3801 25.2927 66.5882 26.5039 66.5271H47.9883C48.3724 66.5271 48.8672 66.5271 49.3359 66.5635C50.7422 66.6121 51.6276 66.6485 52.5912 65.3977C53.0184 64.8178 53.3335 64.1725 53.5221 63.4912C53.7615 62.6678 53.9077 61.8233 53.9583 60.9715L54.4076 60.0729C55.3534 59.2641 56.0826 58.2597 56.5365 57.1403C57.0531 55.7197 57.246 54.2142 57.1029 52.7201L57.0508 51.9126L57.7865 51.4876C58.0448 51.3087 58.2588 51.0799 58.4139 50.8169C58.5689 50.554 58.6613 50.2629 58.6849 49.9636C58.8291 48.7384 58.7029 47.4986 58.3138 46.3206L58.431 45.3309C58.9462 44.4594 59.2527 43.4941 59.3294 42.5015C59.3718 41.7112 59.1438 40.9288 58.6784 40.2672C58.1795 39.5951 57.508 39.0503 56.7253 38.6825C55.5849 38.1499 54.3345 37.8537 53.0599 37.8142H38.5807L38.9063 36.1992C39.2188 34.6327 39.4466 33.1634 39.5573 31.7244C39.6835 30.4467 39.7074 29.162 39.6289 27.881C39.5406 26.4129 39.1251 24.9781 38.4088 23.6682C37.6925 22.3582 36.6911 21.202 35.4688 20.2733C34.9168 19.8606 34.2846 19.5513 33.6068 19.3625C33.2585 19.2519 32.8808 19.2519 32.5326 19.3625L32.5521 19.3504Z" fill="#212121"/>
<path fill-rule="evenodd" clip-rule="evenodd" d="M61.7904 7.60172e-05C62.6865 -0.0170633 63.5642 0.238727 64.2904 0.728673C65.2734 1.33584 66.3737 2.45302 67.7344 3.15733C69.6484 4.17737 73.1901 2.76875 75.0065 5.28848C75.8006 6.40629 76.2074 7.72458 76.1719 9.06504C76.2291 10.5364 76.8136 11.9473 77.832 13.0723C80.0586 15.8167 80.5208 17.6443 79.375 19.5508C78.5938 20.8501 76.9466 21.5726 76.5625 22.3923C75.7552 24.1409 76.6471 25.4646 75.5404 27.5046C75.1942 28.1799 74.7029 28.7816 74.097 29.2725C73.4911 29.7634 72.7836 30.133 72.0182 30.3583C70.6836 30.759 69.3425 30.1762 68.2747 30.5951C66.3932 31.3298 65.0195 33.0238 63.5156 33.4791C62.9574 33.6423 62.3754 33.7242 61.7904 33.722C61.2053 33.7251 60.6232 33.6432 60.0651 33.4791C58.5677 33.042 57.181 31.3358 55.2995 30.5951C54.2318 30.1762 52.8906 30.759 51.556 30.3583C50.79 30.1386 50.0805 29.7747 49.4713 29.2891C48.8621 28.8034 48.3663 28.2064 48.0143 27.535C46.9011 25.4949 47.7995 24.1713 46.9922 22.4227C46.6081 21.603 44.9609 20.8805 44.1797 19.5811C43.0339 17.6746 43.5287 15.8471 45.7227 13.1027C46.7411 11.9777 47.3256 10.5667 47.3828 9.0954C47.3517 7.75094 47.7655 6.43018 48.5677 5.31277C50.3841 2.79303 53.9258 4.20165 55.8398 3.18162C57.2005 2.45909 58.3008 1.31155 59.2774 0.75296C60.0056 0.255044 60.8874 -0.00913681 61.7904 7.60172e-05ZM58.6458 14.8999L60.9701 17.0007L64.9805 13.1998C65.3776 12.8234 65.6315 12.5198 66.1198 12.9934L67.7083 14.5113C68.2292 14.991 68.2031 15.2703 67.7083 15.7256L61.849 21.0626C60.8073 22.0098 60.9896 22.0705 59.9414 21.099L55.9896 17.3468C55.9355 17.3076 55.8917 17.2574 55.8616 17.2001C55.8315 17.1427 55.8159 17.0797 55.8159 17.0159C55.8159 16.952 55.8315 16.889 55.8616 16.8316C55.8917 16.7743 55.9355 16.7241 55.9896 16.685L57.832 14.8999C58.1055 14.6267 58.3268 14.6449 58.6198 14.8999H58.6458ZM61.7318 7.61392C63.7431 7.61272 65.7096 8.16777 67.3826 9.20887C69.0557 10.25 70.3601 11.7304 71.131 13.4629C71.9019 15.1954 72.1045 17.1022 71.7134 18.9421C71.3223 20.782 70.3549 22.4725 68.9336 23.7997C67.5124 25.1269 65.701 26.0312 63.7286 26.3983C61.7562 26.7654 59.7114 26.5788 57.8527 25.8621C55.994 25.1454 54.405 23.9308 53.2865 22.3719C52.168 20.8129 51.5703 18.9796 51.569 17.1039C51.569 14.5897 52.6395 12.1783 54.5452 10.3999C56.4509 8.62151 59.0358 7.6216 61.7318 7.61999V7.61392Z" fill="#212121"/>
</g>
<defs>
<clipPath id="clip0_1028_2">
<rect width="80" height="70" fill="white"/>
</clipPath>
</defs>
</svg>
