<svg width="90" height="65" viewBox="0 0 90 65" fill="none" xmlns="http://www.w3.org/2000/svg">
<g clip-path="url(#clip0_1027_2)">
<path fill-rule="evenodd" clip-rule="evenodd" d="M38.6719 55.0067C41.0889 62.169 51.1963 62.4269 53.4668 55.0067C56.1401 57.431 64.0576 57.9099 67.002 59.5679C67.9321 60.0911 68.7744 60.7542 69.4482 61.6532C69.9023 62.2574 70.5103 63.3701 70.9644 64.6154H21.167C21.6284 63.3701 22.229 62.2574 22.6831 61.6532C23.3569 60.7542 24.1992 60.0911 25.1294 59.5679C28.0811 57.9173 35.9985 57.431 38.6719 55.0067ZM36.9946 0H55.1514C55.9351 0 56.5723 0.64107 56.5723 1.42951V14.2583C56.5723 15.0467 55.9351 15.6878 55.1514 15.6878H36.9946C36.2109 15.6878 35.5737 15.0467 35.5737 14.2583V1.42951C35.5737 0.64107 36.2109 0 36.9946 0ZM55.73 4.00116H36.4746V14.3983C36.4746 14.5088 36.5186 14.6046 36.5918 14.6783C36.665 14.752 36.7603 14.7962 36.8701 14.7962H55.3345C55.4443 14.7962 55.5396 14.752 55.6128 14.6783C55.686 14.6046 55.73 14.5088 55.73 14.3983V4.00116ZM53.7964 1.60636C54.1846 1.60636 54.4995 1.92321 54.4995 2.31375C54.4995 2.70428 54.1846 3.02113 53.7964 3.02113C53.4082 3.02113 53.0933 2.70428 53.0933 2.31375C53.0933 1.92321 53.4082 1.60636 53.7964 1.60636ZM49.0356 1.60636C49.4238 1.60636 49.7388 1.92321 49.7388 2.31375C49.7388 2.70428 49.4238 3.02113 49.0356 3.02113C48.6475 3.02113 48.3325 2.70428 48.3325 2.31375C48.3325 1.92321 48.6475 1.60636 49.0356 1.60636ZM51.416 1.60636C51.8042 1.60636 52.1191 1.92321 52.1191 2.31375C52.1191 2.70428 51.8042 3.02113 51.416 3.02113C51.0278 3.02113 50.7129 2.70428 50.7129 2.31375C50.7129 1.92321 51.0278 1.60636 51.416 1.60636ZM43.4766 8.38548L41.1621 9.26235L43.4766 10.1466V12.1951L39.8804 10.1466V8.38548L43.4766 6.33701V8.38548ZM52.2656 8.38548V10.1466L48.6694 12.1951V10.1466L50.9839 9.26235L48.6694 8.38548V6.32964L52.2656 8.38548ZM46.0327 12.7698H44.502L46.3916 5.35698H47.9224L46.0327 12.7698ZM87.8101 40.999C87.8394 40.999 87.8687 40.999 87.8979 41.0063C88.0811 40.6821 88.2495 40.3358 88.4106 39.9747C88.418 39.9674 88.418 39.96 88.4253 39.96C88.6523 39.4074 88.8354 38.84 88.9453 38.2505C89.0332 37.7936 89.0991 37.322 89.1138 36.8431H86.3599C86.3086 38.2505 85.8911 39.6358 85.1147 40.999H87.8101ZM87.334 41.8832H84.5654C83.7231 43.1138 82.5879 44.3222 81.1743 45.5159C81.394 45.4865 81.6211 45.4496 81.8335 45.4054C82.4268 45.2875 82.998 45.1107 83.5547 44.8675C84.1113 44.6243 84.6387 44.3443 85.1221 44.0127C85.6055 43.6885 86.0522 43.3201 86.4697 42.9001C86.7773 42.5832 87.0776 42.2443 87.334 41.8832ZM78.8086 45.5159C77.3877 44.3222 76.2524 43.1138 75.4175 41.8832H72.6489C72.9126 42.2443 73.2056 42.5832 73.5278 42.9074C73.9453 43.3275 74.3848 43.6959 74.8755 44.0201C75.3589 44.3443 75.8789 44.6317 76.4429 44.8749C76.4502 44.8822 76.4575 44.8822 76.4575 44.8896C77.0068 45.118 77.5708 45.3022 78.1567 45.4128C78.3691 45.4496 78.5889 45.4791 78.8086 45.5159ZM72.0703 40.999H74.8608C74.0845 39.6358 73.667 38.2431 73.6157 36.8431H70.8618C70.8838 37.3294 70.9424 37.7936 71.0303 38.2505C71.1475 38.8473 71.3232 39.4221 71.5649 39.9821C71.7114 40.3358 71.8799 40.6748 72.0703 40.999ZM70.8618 35.9588H73.6304C73.7329 34.5809 74.187 33.1956 75 31.8029H72.0703C71.8872 32.1272 71.7188 32.4661 71.5649 32.8272C71.5576 32.8345 71.5576 32.8419 71.5503 32.8419C71.3232 33.3946 71.1401 33.9619 71.0303 34.5514C70.9351 35.0083 70.8765 35.4725 70.8618 35.9588ZM72.6416 30.9187H75.564C76.3989 29.7103 77.4976 28.4944 78.8672 27.2712C78.6182 27.3007 78.3838 27.3376 78.1494 27.3891C77.5562 27.507 76.9849 27.6839 76.4282 27.9271C75.8716 28.1702 75.3442 28.4502 74.8608 28.7818C74.3774 29.106 73.9307 29.4745 73.5132 29.8945C73.1982 30.2113 72.9053 30.5503 72.6416 30.9187ZM81.1011 27.2712C82.478 28.4944 83.5767 29.7103 84.4043 30.9187H87.3267C87.063 30.5576 86.77 30.2187 86.4478 29.8945C86.0303 29.4745 85.5908 29.106 85.1001 28.7818C84.6167 28.4576 84.0967 28.1702 83.5327 27.9271C83.5254 27.9197 83.5181 27.9197 83.5181 27.9123C82.9688 27.6839 82.4048 27.4997 81.8188 27.3891C81.5845 27.3449 81.3428 27.3081 81.1011 27.2712ZM87.9053 31.8029H84.9756C85.7886 33.1956 86.2427 34.5809 86.3452 35.9588H89.1138C89.0918 35.4725 89.0332 35.0083 88.9453 34.5514C88.8281 33.9546 88.6523 33.3798 88.4106 32.8198C88.2568 32.4661 88.0884 32.1272 87.9053 31.8029ZM77.9736 26.5196C78.6255 26.387 79.292 26.3207 79.9878 26.3207C80.6763 26.3207 81.3428 26.387 82.002 26.5196C82.6465 26.6449 83.2617 26.8365 83.8696 27.1018C83.877 27.1018 83.8843 27.1091 83.8916 27.1165C84.4922 27.3744 85.0635 27.6913 85.5981 28.045C86.1328 28.3986 86.6235 28.8113 87.0776 29.2681C87.5317 29.725 87.9346 30.2187 88.2935 30.7566C88.6523 31.2945 88.96 31.8693 89.2163 32.4735C89.48 33.0924 89.6704 33.7262 89.8022 34.3746C89.9341 35.0304 90 35.7009 90 36.401C90 37.0936 89.9341 37.7642 89.8022 38.4273C89.6777 39.0758 89.4873 39.6947 89.2236 40.3063C89.2236 40.3137 89.2163 40.3211 89.209 40.3284C88.9526 40.94 88.6377 41.5074 88.2861 42.0453C87.9346 42.5832 87.5244 43.0769 87.0703 43.5338C86.6162 43.9906 86.1255 44.3959 85.5908 44.757C85.0562 45.118 84.4849 45.4275 83.8843 45.6854C83.269 45.9507 82.6392 46.1423 81.9946 46.2749C81.3428 46.4075 80.6763 46.4739 79.9805 46.4739C79.292 46.4739 78.6255 46.4075 77.9663 46.2749C77.3218 46.1496 76.7065 45.9581 76.0986 45.6928C76.0913 45.6928 76.084 45.6854 76.0767 45.678C75.4761 45.4201 74.9048 45.1033 74.3701 44.7496C73.8354 44.3959 73.3447 43.9833 72.8906 43.5264C72.4365 43.0696 72.0337 42.5759 71.6748 42.0379C71.3159 41.5 71.0083 40.9253 70.752 40.3211C70.4883 39.7021 70.2979 39.0684 70.166 38.42C70.0342 37.7642 69.9683 37.0936 69.9683 36.3936C69.9683 35.7009 70.0342 35.0304 70.166 34.3672C70.2905 33.7188 70.481 33.0998 70.7446 32.4882C70.7446 32.4809 70.752 32.4735 70.7593 32.4661C71.0156 31.8545 71.3306 31.2871 71.6821 30.7492C72.0337 30.2113 72.4438 29.7176 72.8979 29.2608C73.3521 28.8039 73.8428 28.3986 74.3774 28.0376C74.9121 27.6765 75.4834 27.367 76.084 27.1091C76.6919 26.8512 77.3218 26.6597 77.9736 26.5196ZM80.4272 27.846V30.9187H83.335C82.5659 29.9018 81.5991 28.8776 80.4272 27.846ZM80.4272 31.8029V35.9588H85.4663C85.3491 34.5956 84.8438 33.2104 83.9429 31.8029H80.4272ZM80.4272 36.8431V40.999H84.0967C84.9683 39.621 85.4297 38.2357 85.481 36.8431H80.4272ZM80.4272 41.8832V44.9928C81.6724 43.9685 82.6904 42.9296 83.4814 41.8832H80.4272ZM79.5483 44.9854V41.8758H76.4941C77.2778 42.9222 78.2959 43.9612 79.5483 44.9854ZM79.5483 40.999V36.8431H74.4873C74.5386 38.2357 75.0073 39.621 75.8716 40.999H79.5483ZM79.5483 35.9588V31.8029H76.0254C75.1245 33.2104 74.6191 34.5956 74.5093 35.9588H79.5483ZM79.5483 30.9187V27.846C78.3691 28.8776 77.4023 29.9018 76.6406 30.9187H79.5483ZM6.90674 36.401L3.66211 31.6629C4.2334 30.9703 4.73145 30.2334 5.16357 29.4597C5.61035 28.6565 5.98389 27.8165 6.30615 26.9397L12.019 27.4923L6.90674 36.401ZM7.97607 37.0494L13.1104 28.0965L21.9653 33.2398L21.2622 34.463L14.2163 30.3734C13.8354 30.1524 13.3374 30.285 13.1177 30.6682C12.8979 31.0513 13.0298 31.5524 13.4106 31.7735L20.4565 35.863L19.7974 37.0052L12.7515 32.9156C12.3706 32.6945 11.8726 32.8272 11.6528 33.2104C11.4331 33.5935 11.5649 34.0946 11.9458 34.3156L18.9917 38.4052L18.3325 39.5474L11.2866 35.4578C10.9058 35.2367 10.4077 35.3694 10.188 35.7525C9.96826 36.1357 10.1001 36.6368 10.481 36.8578L17.5269 40.9474L16.8237 42.1706L7.97607 37.0494ZM2.54883 30.0492L0 26.3281L4.37256 26.7554C4.12354 27.3744 3.84522 27.9713 3.53027 28.5386C3.24463 29.0692 2.91504 29.5703 2.54883 30.0492ZM12.7222 62.0143C13.0957 62.8543 12.7222 63.8417 11.8799 64.2175C11.0449 64.5933 10.0635 64.2175 9.68994 63.3701C8.75977 61.2774 7.99805 59.1037 7.44141 56.8562C6.89209 54.653 6.52588 52.3688 6.35742 50.0329C6.2915 49.1118 6.97998 48.3086 7.90283 48.2423C8.81836 48.176 9.6167 48.8687 9.68262 49.7971C9.83643 51.934 10.1733 54.0193 10.6714 56.0383C11.1841 58.1236 11.8799 60.1132 12.7222 62.0143ZM19.7095 22.1058C19.0283 22.7174 17.981 22.6585 17.3657 21.9732C16.7578 21.2879 16.8164 20.2342 17.4976 19.6153C19.0503 18.2226 20.8667 16.7931 22.7417 15.5625C24.4263 14.4572 26.1621 13.5067 27.8174 12.8582C28.6743 12.5266 29.6338 12.954 29.9634 13.8162C30.293 14.6783 29.8682 15.6436 29.0112 15.9752C27.583 16.5278 26.0522 17.3752 24.5435 18.3626C22.8149 19.5047 21.1304 20.8237 19.7095 22.1058ZM62.7686 15.0246C61.9775 14.5604 61.7139 13.5361 62.1753 12.7403C62.6367 11.9445 63.6548 11.6793 64.4458 12.1435C66.3062 13.234 68.0713 14.4867 69.7192 15.8646C71.3818 17.2499 72.9272 18.7752 74.3335 20.4037C74.9341 21.1037 74.8608 22.1574 74.165 22.7617C73.4692 23.3659 72.4219 23.2922 71.8213 22.5922C70.5249 21.089 69.1113 19.6963 67.6025 18.4289C66.0938 17.1762 64.4751 16.0341 62.7686 15.0246ZM81.1963 52.0003C81.3135 51.0866 82.1484 50.4382 83.0566 50.5634C83.9648 50.6887 84.6094 51.5214 84.4849 52.4351C84.2358 54.3214 83.8623 56.1562 83.3643 57.9247C82.8589 59.7447 82.2217 61.4985 81.4819 63.1932C81.1084 64.0406 80.127 64.4238 79.292 64.048C78.4497 63.6722 78.0688 62.6848 78.4424 61.8448C79.1309 60.2826 79.7095 58.6763 80.1709 57.0257C80.625 55.3825 80.9766 53.7025 81.1963 52.0003ZM36.8188 40.1663C36.3135 40.1884 35.9253 40.2916 35.6689 40.4684C35.5225 40.5716 35.4126 40.6969 35.3394 40.8516C35.2588 41.0211 35.2222 41.2274 35.2295 41.4706C35.2515 42.1706 35.6177 43.0843 36.3208 44.138L36.3281 44.1527L38.6133 47.8149C39.5288 49.2813 40.4956 50.7771 41.6895 51.8751C42.8394 52.9288 44.231 53.6509 46.0767 53.6509C48.0762 53.6583 49.5337 52.914 50.7202 51.794C51.9507 50.6298 52.9248 49.0381 53.8843 47.4539L56.4624 43.1801C56.9458 42.0748 57.1143 41.3379 57.0044 40.9032C56.9385 40.6453 56.6528 40.52 56.1768 40.4979C56.0742 40.4905 55.9717 40.4905 55.8618 40.4979C55.7446 40.4979 55.6274 40.5126 55.5029 40.52C55.437 40.5274 55.3711 40.52 55.3052 40.5053C55.0781 40.52 54.8364 40.5053 54.6021 40.4684L55.4883 36.902C48.9404 37.941 44.0405 33.0482 37.1191 35.922L37.6172 40.1884C37.3242 40.2179 37.0605 40.2032 36.8188 40.1663ZM57.0557 39.341C57.6929 39.5326 58.0957 39.9379 58.2642 40.5937C58.4473 41.3158 58.2495 42.3401 57.6343 43.7401C57.6196 43.7622 57.6123 43.7917 57.5977 43.8138L54.9902 48.1318C53.9868 49.7971 52.9614 51.4624 51.6064 52.7519C50.1929 54.0783 48.457 54.9625 46.084 54.9551C43.8647 54.9478 42.1948 54.093 40.8252 52.833C39.4995 51.6171 38.4888 50.0403 37.5293 48.5076L35.2441 44.8454C34.4092 43.5927 33.9697 42.4432 33.9478 41.5C33.9331 41.0579 34.0063 40.6526 34.1748 40.299C34.3433 39.9305 34.6069 39.621 34.9585 39.3779C35.127 39.2673 35.3101 39.1716 35.5151 39.0905C35.3687 37.1083 35.3101 34.9714 35.4053 32.8788C35.4565 32.3851 35.5518 31.884 35.6909 31.3903C36.2769 29.2902 37.7417 28.325 39.5581 27.1681C40.5615 26.527 41.6528 26.0407 42.8027 25.7165C43.5278 25.5101 42.1875 23.1743 42.9346 23.0932C46.5674 22.7174 52.4414 26.0554 54.9829 28.8113C56.25 30.1966 57.0483 31.2945 57.2241 33.7188L57.0557 39.341Z" fill="black"/>
</g>
<defs>
<clipPath id="clip0_1027_2">
<rect width="90" height="64.6154" fill="white"/>
</clipPath>
</defs>
</svg>
