<svg xmlns="http://www.w3.org/2000/svg"
     fill-rule="evenodd"
     stroke-linejoin="round"
     stroke-miterlimit="2" clip-rule="evenodd"
     viewBox="-5 -5 34 34">
    <g transform="translate(-40 -40)">
        <rect width="24" height="24" x="40" y="40" fill="none"/>
        <path fill="white" d="M474.334,389.595L476.54,382.806C476.546,382.788 476.552,382.771 476.558,382.754C476.752,382.262 477.23,381.937 477.758,381.937C478.08,381.937 478.39,382.057 478.628,382.274C478.634,382.28 478.64,382.286 478.647,382.292C478.803,382.443 478.919,382.632 478.976,382.823L480.985,388.989L487.018,388.989L489.027,382.806C489.033,382.788 489.039,382.771 489.046,382.754C489.239,382.262 489.717,381.937 490.246,381.937C490.567,381.937 490.878,382.057 491.115,382.274C491.121,382.28 491.128,382.286 491.134,382.292C491.291,382.443 491.406,382.632 491.464,382.824C491.464,382.824 493.511,389.125 493.663,389.592C493.667,389.604 493.671,389.615 493.674,389.627L494.823,393.027C494.827,393.039 494.831,393.051 494.834,393.063C495.035,393.753 494.766,394.497 494.174,394.9L484.531,401.909L484.509,401.924L484.486,401.939L484.48,401.943C484.425,401.977 484.368,402.005 484.308,402.027L484.275,402.038L484.252,402.045C484.191,402.063 484.128,402.074 484.063,402.078L484.034,402.08L484.011,402.08L483.984,402.08L483.956,402.079L483.941,402.078C483.876,402.074 483.813,402.063 483.752,402.045L483.719,402.035L483.696,402.027C483.636,402.005 483.578,401.977 483.523,401.943L483.5,401.927L483.48,401.914L483.473,401.909C483.473,401.909 473.822,394.895 473.818,394.892C473.24,394.467 473,393.714 473.223,393.038L474.323,389.63C474.326,389.618 474.33,389.606 474.334,389.595ZM474.965,393.5L482.289,398.823L480.162,392.278C480.008,391.806 480.267,391.298 480.739,391.144C481.212,390.991 481.72,391.249 481.874,391.722L484.002,398.269L486.13,391.722C486.284,391.249 486.792,390.991 487.264,391.144C487.737,391.298 487.996,391.806 487.842,392.278L485.715,398.823L493.074,393.475L492.167,390.789L475.84,390.789L474.965,393.5ZM488.911,388.989L491.575,388.989L490.243,384.89L488.911,388.989ZM476.423,388.989L479.092,388.989L477.756,384.888L476.423,388.989Z" transform="translate(-432 -340)"/></g></svg>
