<svg xmlns="http://www.w3.org/2000/svg" viewBox="0 0 32 32">
	<path d="M16 0C7.163 0 0 7.163 0 16c0 8.836 7.163 16 16 16s16-7.164 16-16c0-8.837-7.163-16-16-16z" fill="none"/>
	<path fill="#FFF" d="M24.294 22.942v-6.137c0-3.288-1.755-4.818-4.096-4.818-1.889 0-2.735 1.039-3.206 1.768v-1.517h-3.558c.047 1.005 0 10.704 0 10.704h3.558v-5.978c0-.319.023-.639.117-.867.257-.639.842-1.301 1.825-1.301 1.288 0 1.803.981 1.803 2.42v5.727l3.557-.001zM9.685 10.777c1.24 0 2.013-.823 2.013-1.85-.023-1.05-.773-1.849-1.99-1.849s-2.012.799-2.012 1.849c0 1.028.772 1.85 1.967 1.85h.022zm1.779 12.165V12.238H7.907v10.704h3.557z"/>
</svg>
