<svg width="123" height="63" viewBox="0 0 123 63" fill="none" xmlns="http://www.w3.org/2000/svg">
<g clip-path="url(#clip0_1028_7)">
<path fill-rule="evenodd" clip-rule="evenodd" d="M78.5 37.0615L78.29 29.7138L65.2 33.2031C64.02 33.4431 62.86 33.5538 61.72 33.5538C60.5 33.5631 59.3 33.4338 58.11 33.2031L45.61 29.6769V37.1262C45.97 40.9939 58 42.1846 61.7 42.3508C64.66 42.48 76.35 41.0585 77.88 38.8338C78.21 38.3354 78.42 37.7538 78.5 37.0615ZM2.7 57.1015H16.07C15.08 56.8708 14.34 56.0215 14.34 55.0431V2.12308C14.34 0.96 15.38 0 16.64 0H105.62C106.88 0 107.92 0.96 107.92 2.12308V55.0246C107.92 56.0123 107.19 56.8523 106.19 57.0831H120.17C121.66 57.0831 122.87 58.2 122.87 59.5754C122.87 60.9508 121.66 62.0677 120.17 62.0677H2.7C1.21 62.0677 0 60.9508 0 59.5754C0 58.2185 1.21 57.1015 2.7 57.1015ZM18.28 3.33231H104.31V54.4338H18.28V3.33231ZM57.65 58.0338H65.23C65.94 58.0338 66.53 58.5692 66.53 59.2246C66.53 59.88 65.95 60.4246 65.23 60.4246H57.65C56.94 60.4246 56.35 59.8892 56.35 59.2246C56.35 58.5692 56.94 58.0338 57.65 58.0338ZM83.8 24.4246V33.4062H84.11C84.32 33.4062 84.49 33.5631 84.49 33.7569V36.1662C84.49 36.36 84.32 36.5169 84.11 36.5169H83.8V37.3662C84.19 37.4308 84.49 37.7538 84.49 38.1323C84.49 38.5569 84.11 38.9169 83.65 38.9169H82.14C81.68 38.9169 81.29 38.5662 81.29 38.1323C81.29 37.7538 81.59 37.44 81.98 37.3662V36.5169H81.67C81.46 36.5169 81.29 36.36 81.29 36.1662V33.7569C81.29 33.5631 81.46 33.4062 81.67 33.4062H81.98V24.9508L66.06 29.52C63.18 30.1569 60.29 30.1938 57.41 29.52L39.84 24.6738L38.25 24.2308C36.27 23.4831 36.77 21.7292 38.6 21.3231L58.48 15.84C60.53 15.3046 62.58 15.2215 64.63 15.84L84.14 21.2585C86.26 21.7385 86.68 23.5477 84.21 24.2954L83.8 24.4246Z" fill="black"/>
</g>
<defs>
<clipPath id="clip0_1028_7">
<rect width="122.88" height="62.0769" fill="white"/>
</clipPath>
</defs>
</svg>
